# xmcd
#
# Track frame offsets:
#	150
#	11405
#	27650
#	46860
#	65670
#	75445
#	89470
#	113917
#	133290
#	160377
#
# Disc length: 2380 seconds
#
# Revision: 1
# Processed by: cddbd v1.4PL0 Copyright (c) Steve Scherf et al.
# Submitted via: CDmax 1.9
#
DISCID=81094a0a
DTITLE=Doug Kearney - My Backyard
DYEAR=2001
DGENRE=Country
TTITLE0=Color Of Blue
TTITLE1=La Fleur Rouge
TTITLE2=Cha Cha Real
TTITLE3=Bed Of Nails
TTITLE4=Hannah Rae
TTITLE5=Teles' Rule
TTITLE6=Texaco Blues
TTITLE7=Love Gone Wrong
TTITLE8=Legend Of Sonny Ray Johnson
TTITLE9=Feather From An Angel
EXTD=
EXTT0=
EXTT1=
EXTT2=
EXTT3=
EXTT4=
EXTT5=
EXTT6=
EXTT7=
EXTT8=
EXTT9=
PLAYORDER=
